<?xml version="1.0" encoding="utf-8"?>
<!-- Generator: Adobe Illustrator 25.0.0, SVG Export Plug-In . SVG Version: 6.00 Build 0)  -->
<svg version="1.1" id="Layer_1" xmlns="http://www.w3.org/2000/svg" xmlns:xlink="http://www.w3.org/1999/xlink" x="0px" y="0px"
	 viewBox="0 0 500 500" style="enable-background:new 0 0 500 500;" xml:space="preserve">
<style type="text/css">
	.st0{fill:#00005B;}
	.st1{fill-rule:evenodd;clip-rule:evenodd;fill:#9999FF;}
	.st2{fill:#9999FF;}
</style>
<g id="Animate" transform="translate(847 308)">
	<path id="_4" class="st0" d="M-743.2-270.6h292.3c36.7,0,66.4,29.7,66.4,66.4V88.2c0,36.7-29.7,66.4-66.4,66.4h-292.3
		c-36.7,0-66.4-29.7-66.4-66.4v-292.3C-809.6-240.9-779.9-270.6-743.2-270.6z"/>
	<path id="_6" class="st1" d="M-646.7-143.2l57.5,172c0.5,1.2,0.4,2.5-0.1,3.6c-0.7,1.2-2,1.8-3.4,1.8h-29.8c-1,0-1.9-0.2-2.8-0.7
		c-0.8-0.5-1.5-1.2-1.9-2.1l-0.1-0.1l-15-46h-53.4l-14.1,45.1c-0.2,1.1-0.7,2.1-1.6,2.9c-0.9,0.7-2.1,1.1-3.3,1h-26.6
		c-1.4,0.1-2.8-0.5-3.7-1.6c-0.7-1.2-0.9-2.6-0.4-3.9v-0.1l51.4-156.9v0c1.4-4.5,2-9.2,2-13.9c-0.1-2,1.5-3.7,3.5-3.8
		c0.1,0,0.3,0,0.4,0h37.3c0.9,0,1.8,0.2,2.6,0.8C-647.4-144.9-646.9-144.1-646.7-143.2z M-687.9-44.7c9.3-30.3,15.6-51.6,18.8-63.8
		c1.2,4.2,2.6,9,4.3,14.5c2.8,9.4,6,19.5,9.3,30.4c2.7,8.5,4.6,14.8,5.8,18.9L-687.9-44.7z"/>
	<path id="_7" class="st2" d="M-529.5-96.8c0.4,1.2,0.7,2.4,0.9,3.6c0.2,0.9,0.4,1.9,0.6,3.2c9.9-8.1,22.4-12.5,35.3-12.4
		c5.2,0,10.4,0.8,15.4,2.5c5.1,1.8,9.9,4.6,14,8.1c5.2,4.5,9.1,10.4,11.1,16.9c2.9,8.3,4.3,17,4.1,25.8v78.9
		c0.2,2.3-1.5,4.2-3.8,4.4c-0.2,0-0.4,0-0.6,0h-28.2c-2.3,0.2-4.2-1.5-4.4-3.8c0-0.2,0-0.4,0-0.6v-79.6c0.4-6-1.3-12-4.8-17l0,0
		c-3.3-4-8.4-6.2-13.7-5.8c-8.2-0.1-15.9,3.5-21.2,9.8v92.6c0.2,2.3-1.5,4.2-3.8,4.4c-0.2,0-0.4,0-0.6,0h-28.2
		c-2.3,0.2-4.2-1.5-4.4-3.8c0-0.2,0-0.4,0-0.6v-97.2c0-11.3-0.3-20.5-1-27.9c-0.3-1.1-0.1-2.4,0.6-3.3c0.8-1,2-1.5,3.3-1.4h24.2
		c1.1,0,2.2,0.2,3.1,0.8C-530.7-98.8-530-97.9-529.5-96.8L-529.5-96.8z"/>
</g>
</svg>
